<svg height="100%" version="1.1" width="100%" xmlns="http://www.w3.org/2000/svg" preserveAspectRatio="xMidYMid meet"
     viewBox="0 0 600 442" xmlns:xlink="http://www.w3.org/1999/xlink">
  <desc>Created with Snap</desc>
  <defs/>
  <g id="root" contentwidth="480" contentheight="300.0847856806406">
   <rect class="watermarklayer" height="100%" width="100%" y="0" x="0" style="" fill="none"/>
    <g class="content" id="content" transform="matrix(0.5652,0,0,0.5652,191.87,236.3462)">
      <g class="icon" style="mask: url(#mask);">
        <svg height="530.9" version="1.1" width="849.2" xmlns="http://www.w3.org/2000/svg" x="-233.3"
             y="-292.59999999999997">
          <desc>Created with Snap</desc>
          <defs/>
          <svg xmlns:xlink="http://www.w3.org/1999/xlink" version="1.1" xmlns="http://www.w3.org/2000/svg"
               viewBox="0 0 849.2 530.9">
            <defs/>
            <g>
              <path fill="none" stroke="#000000" paint-order="fill stroke markers"
                    d=" M 455.690615177048 340.50938482295203 A 106.15 106.15 0 1 0 455.69061517704796 190.39061517704798"
                    stroke-linecap="round" stroke-miterlimit="10" stroke-width="6" style=""/>
            </g>
            <desc>Created with Snap</desc>
          </svg>
        </svg>
      </g>
      <g id="icon_name_and_slogan_gap">
      </g>
      <g class="name_and_slogan" id="name_and_slogan_id">
        <g class="name">
          <g id="nameDefaultGroup">
            <path
              d="M31.2 -55Q40.8 -55 50 -53.1Q51.5 -52.8 52.3 -51.4Q53.1 -50.1 53.1 -48.2Q53.1 -45.6 51.9 -43.2Q50.8 -40.8 49.5 -40.9Q44.6 -41 38.1 -41.8Q34.2 -42.3 32.5 -42.3Q30.4 -42.3 29.1 -41.9Q27.1 -41.3 26.5 -40.1Q25.9 -38.9 26.1 -36.9Q26.6 -34.3 28.2 -30.6Q30.8 -30.5 35.6 -30.7Q37.2 -30.8 40.2 -30.8L42.7 -30.7Q46.3 -30.5 48.1 -29.8Q50 -29.2 51.3 -27.5Q52.8 -25.3 53.7 -22.4Q54.6 -19.4 54.6 -16.3Q54.6 -12.5 53.3 -9.4Q52.1 -6.3 49.6 -4.8Q45.9 -2.7 39.9 -1.5Q33.8 -0.4 26.6 -0.4Q16.9 -0.4 7.8 -2.3Q6.3 -2.6 5.5 -4Q4.8 -5.3 4.8 -7.2Q4.8 -9.9 5.9 -12.2Q7.1 -14.6 8.4 -14.5Q14 -14.4 19.5 -13.5Q23.7 -13 25.5 -13Q27.3 -13 28.9 -13.5Q30.7 -14 31.1 -15Q31.5 -15.9 31.6 -17.7Q31.7 -18.1 31.7 -18.9Q31.7 -20.7 30.6 -22.2L27.7 -22.2Q21.4 -22.2 14.1 -23.2Q11.5 -23.6 10.1 -24.1Q8.8 -24.6 7.9 -25.8Q5.7 -29 4.6 -32.8Q4.2 -34 4 -37.9L4.8 -37.9Q4.8 -36.1 5 -35.1Q5.2 -34.1 5.2 -33.9Q5.5 -32.3 6 -32.3Q6.3 -32.3 6.3 -33.9Q5.9 -37.5 5.9 -43.6Q5.9 -44.1 5.3 -44.1Q5 -44.1 4.6 -43.9L4 -44.1Q5.1 -48.7 8.4 -50.6Q12 -52.8 18 -53.9Q24 -55 31.2 -55zM61.8 -16.3Q61.8 -21.1 63.2 -27.7Q63.1 -27.8 63.4 -27.9Q63.7 -28 63.9 -28Q64.4 -28 64.3 -27.6Q63.7 -24.3 63.4 -22.3Q63.1 -20.4 63.1 -18Q63.1 -16 63.4 -13.2Q63.4 -13 63.9 -13Q64.3 -13 64.7 -13.1Q65 -13.2 65 -13.5Q65 -14.5 65 -16.6Q65 -22.1 66.2 -28.4Q65.9 -28.9 65.3 -29.1Q64.7 -29.4 64.1 -29.3Q67 -33.8 71 -36.2Q74.9 -38.7 80.6 -39.4Q82.5 -39.6 84.3 -39.6Q91 -39.6 95.1 -36.8Q99.7 -33.5 100.8 -27.8Q101.2 -25.3 101.2 -23.4Q101.2 -21.3 100.8 -19.6Q100.5 -18.4 99.6 -18.1Q98.8 -17.7 97.3 -17.6Q93.9 -17.5 88.6 -17.1Q83.4 -16.8 81.1 -16.6Q78.3 -16.3 78 -19.6L78 -20.8Q78 -22.2 79 -22.6Q79.3 -22.8 79.5 -22.8Q79.8 -22.9 79.9 -22.9Q81.4 -23.1 84.2 -23.3Q87 -23.5 88.8 -23.5Q88.8 -25.1 88 -26.9Q86.9 -29.4 83.3 -29.2Q81 -29.2 79.5 -28Q78 -26.9 77.1 -24.6Q76.5 -23.2 76.3 -21Q76.1 -18.9 76.2 -15.8Q76.3 -12.7 78.2 -11.1Q80 -9.6 82.6 -9.7Q85.5 -9.9 86.8 -10.1Q88.1 -10.4 88.6 -11.1Q89.1 -11.8 89.1 -13.2Q89.1 -14.2 90.8 -14.9Q92.5 -15.5 94.7 -15.5Q97.3 -15.5 99.1 -14.3Q101 -13.1 100.7 -10.4Q100.2 -5.1 95.4 -2.3Q90.6 0.6 84.3 0.9Q83.3 1 81.4 1Q72 1 67 -3.1Q65.2 -4.5 63.9 -7Q62.6 -9.4 62.1 -12.1Q61.8 -14.1 61.8 -16.3zM156.2 -4.5Q156.2 -2.9 155.6 -1.7Q154.9 -0.5 153.5 -0.2Q150.6 0.4 148.1 0.4Q144.9 0.4 141.7 -0.6Q138.6 -1.7 137.2 -3.8Q136.8 -3 136.1 -2.6Q135.4 -2.2 133.9 -2.1Q132.3 -2 127.7 -1.4Q118.3 -0.3 116.4 -0.3Q114.6 -0.3 113.7 -0.9Q112.8 -1.5 112.1 -3.2Q110.7 -6.6 109.4 -16Q108.1 -25.3 108.1 -30.6Q108.1 -33.2 109.1 -34.8Q110.1 -36.4 111.5 -36.9Q113.7 -37.7 118.1 -38.2Q122.6 -38.6 126.3 -38.6Q128.2 -38.6 128.6 -38.5Q131.2 -38.2 132.3 -37.1Q133.3 -36 133.3 -34.1Q133.3 -31.5 132.4 -29.9Q131.6 -28.4 130.2 -28.5Q128.4 -28.7 127.8 -28.7Q125.6 -28.7 124.3 -27.9Q123.2 -27.4 122.8 -26.6Q122.3 -25.8 122.3 -24.8Q122.3 -23.7 122.7 -20.5Q123.1 -17.3 123.3 -16.2L123.8 -11.3Q126.1 -11.5 131.6 -12.2Q133.1 -12.5 134.3 -12.7Q135.1 -12.7 135.4 -12.6Q134.9 -19.2 134.7 -23.9Q134.5 -27.4 134.3 -31.1Q134.2 -34.8 134.1 -36.5Q134.1 -37.2 134.9 -37.9Q135.7 -38.8 138 -39.2Q140.3 -39.6 142.8 -39.6Q147.5 -39.6 149.3 -38.7Q151.1 -37.8 151.1 -35.8L151.1 -36.4Q150.9 -36.4 150.7 -31Q150.4 -25.5 150.4 -20.5Q150.4 -12.6 151.1 -9.9Q151.3 -9.4 152 -9.4L152.9 -9.4Q153.1 -9.4 153.7 -9.3Q154.9 -9 155.6 -7.6Q156.2 -6.2 156.2 -4.5zM161.1 -10.4Q161.4 -12 161.9 -15.3Q162.4 -20.2 163.2 -26.6Q164.1 -32.9 164.5 -35.1Q164.7 -35 166.4 -35Q166.1 -33.6 165.1 -25.1Q164.1 -16.6 164.1 -13.5Q164.1 -12.2 164.2 -12.2Q164.9 -12.2 165.1 -13.1Q165.4 -14 165.5 -15.2L165.7 -15.3Q166 -17.3 166.5 -25.5Q166.6 -27.5 167.1 -33.4Q167.5 -39.4 167.8 -40.2Q167.8 -40.4 167.5 -40.6Q167.3 -40.9 167.2 -41.1Q166.9 -40.9 166.1 -40.6Q165.2 -40.2 165 -40.1Q165 -40.3 164.6 -40.4Q165.1 -42.1 165.8 -45.2Q166.5 -48.2 166.7 -49.4Q167 -51.3 168.2 -52.8Q169.4 -54.4 170.6 -54.6Q172.1 -54.9 175.1 -54.9Q178.9 -54.9 182.2 -54.4Q183.3 -54.3 184.5 -53.2Q185.8 -52.2 186.1 -50.9L194.8 -16.2L204.1 -50.6Q204.5 -52.1 205.8 -53.1Q207.1 -54.2 209.1 -54.7Q211.2 -55.3 213.8 -55.3Q215.5 -55.3 217 -55.1Q218.3 -54.9 219.6 -53.5Q220.9 -52.2 221.5 -49.8Q222 -47.7 222.9 -39.7Q223.6 -33 224.1 -31.7Q223.9 -31.7 223.7 -31.6Q223.6 -31.6 223.6 -31.6Q223.4 -31.7 222.6 -31.9Q221.8 -32.1 221.4 -32.4Q220.8 -31.8 220.8 -31.6Q221.3 -30.5 221.6 -24.3Q222.1 -17.9 222.4 -15.5Q222.4 -15.5 222.4 -15.4Q222.5 -15.4 222.6 -15.4Q222.9 -12.6 223.9 -12.5Q224.1 -12.7 224.1 -13.8Q224.1 -16.4 223.3 -22.2Q222.6 -27.9 222.3 -29.2Q222.3 -29.2 223.1 -29.3Q223.9 -29.4 224.1 -29.5Q224.2 -29.2 224.8 -24.8Q226 -16.8 226.2 -15.7L227 -11L227.7 -7.2Q227.8 -6.2 227.8 -5.8Q227.8 -4.2 227 -3.3Q226.2 -2.3 224.9 -1.9Q222.6 -1.2 220 -0.6Q217.4 -0.1 215.7 -0.1Q214.3 -0.1 213.4 -0.3Q212.5 -0.4 211.3 -0.9Q210.4 -1.2 210 -4.5L209.1 -14.5Q208 -26.3 207.5 -30.5Q206.7 -27.8 206 -25.4Q205.3 -23 204.8 -21.1Q202 -11.2 200.2 -5.7Q199.1 -2.2 197.1 -2.1L195 -2Q193 -2 191.6 -2.3Q189.9 -2.6 188.8 -6.2Q184.2 -21.4 182.3 -30.8L181.8 -24.4Q181.7 -23.1 181.3 -18Q180.9 -12.8 180.5 -9.2Q180.1 -5.5 179.6 -3.2Q179.1 -1.9 178.6 -1.7Q177.8 -1.4 177 -1.3Q176.2 -1.2 175.8 -1.2Q174.2 -0.8 170.8 -0.8Q166 -0.8 164 -1.4Q162.2 -2 161.4 -2.9Q160.6 -3.8 160.6 -5.8Q160.6 -6.3 160.7 -7.6L161.1 -10.4zM236.4 -29.5Q236.5 -29.6 236.6 -29.7Q236.7 -29.7 237 -29.7Q237.2 -29.7 237.4 -29.6Q237.5 -29.5 237.5 -29.2Q236.2 -25 235.7 -22.3Q235.3 -19.6 235.2 -15Q235.2 -14.7 235.9 -14.7Q236.2 -14.7 236.5 -14.8Q236.9 -15 236.9 -15.2Q237.2 -22.6 239.4 -29.9Q239.2 -30.4 238.6 -30.7Q238 -31 237.4 -31Q240.9 -35.4 245.4 -37.4Q249.8 -39.4 256.1 -39.4Q260.2 -39.4 263.8 -38.5Q267.4 -37.5 269.5 -35.6Q273 -32.8 274.4 -29Q275.8 -25.3 275.8 -20.4Q275.8 -17 274.8 -13Q273.8 -9.1 271.4 -6.1Q268.3 -2.3 263.6 -0.7Q259 0.9 253.6 0.9Q243.7 0.9 237.9 -4.6Q236.3 -6.1 235.2 -8.8Q234.1 -11.4 233.9 -14Q233.9 -16.8 234.2 -20.2Q234.6 -23.5 236.4 -29.5zM254.4 -9.8Q256.9 -9.8 258.7 -11.4Q260.6 -13 261.2 -15.9Q262 -19.7 262 -22.2Q262 -24.2 261.5 -25.6Q260.1 -29.2 255.9 -29.2Q253.9 -29.2 252.5 -28.2Q251.1 -27.2 249.9 -25.2Q249 -23.6 248.6 -21.2Q248.3 -18.7 248.3 -16.1Q248.3 -13 250 -11.4Q251.9 -9.8 254.4 -9.8zM284.8 -29.5Q284.8 -29.6 285 -29.7Q285.1 -29.7 285.3 -29.7Q285.6 -29.7 285.8 -29.6Q285.9 -29.5 285.8 -29.2Q284.5 -25 284.1 -22.3Q283.7 -19.6 283.6 -15Q283.6 -14.7 284.3 -14.7Q284.6 -14.7 284.9 -14.8Q285.3 -15 285.3 -15.2Q285.6 -22.6 287.8 -29.9Q287.6 -30.4 286.9 -30.7Q286.3 -31 285.8 -31Q289.3 -35.4 293.8 -37.4Q298.2 -39.4 304.5 -39.4Q308.6 -39.4 312.2 -38.5Q315.8 -37.5 317.9 -35.6Q321.3 -32.8 322.8 -29Q324.2 -25.3 324.2 -20.4Q324.2 -17 323.2 -13Q322.1 -9.1 319.8 -6.1Q316.7 -2.3 312 -0.7Q307.4 0.9 302 0.9Q292.1 0.9 286.3 -4.6Q284.7 -6.1 283.6 -8.8Q282.5 -11.4 282.3 -14Q282.2 -16.8 282.6 -20.2Q283 -23.5 284.8 -29.5zM302.8 -9.8Q305.3 -9.8 307.1 -11.4Q308.9 -13 309.6 -15.9Q310.4 -19.7 310.4 -22.2Q310.4 -24.2 309.9 -25.6Q308.4 -29.2 304.3 -29.2Q302.3 -29.2 300.9 -28.2Q299.4 -27.2 298.3 -25.2Q297.4 -23.6 297 -21.2Q296.6 -18.7 296.6 -16.1Q296.6 -13 298.4 -11.4Q300.2 -9.8 302.8 -9.8zM378.6 -25.1Q378.6 -19.8 377.7 -13.7Q376.8 -7.6 375.7 -3.6Q375.4 -2.6 374.8 -1.8Q374.2 -0.9 373.5 -0.6Q372 0 369.9 0Q368.1 0 365.8 -0.5Q364.1 -0.9 363.3 -1.6Q362.4 -2.2 362 -4Q361.5 -6 361.5 -8.4Q361.5 -10.1 362.1 -15.1Q362.7 -21.3 362.9 -24.5Q363 -26.3 362.6 -27.1Q362.2 -27.9 360.7 -27.9Q358.6 -27.9 355.3 -27.5Q352.1 -27.2 349.6 -26.7L349.3 -26.7Q348.3 -26.7 347.7 -27.6Q349.2 -16.3 349.2 -8.3Q349.2 -5.1 348.9 -3.4Q348.9 -3 348.7 -2.6Q348.5 -2.2 348.2 -1.9Q347.8 -1.7 347.2 -1.5Q346.5 -1.3 346.1 -1.1Q344.7 -0.4 342.1 0Q339.5 0.4 337.3 0.4Q335.7 0.4 334.5 0.2Q333.6 0 332.8 -1.2Q332 -2.4 332 -4.3Q332 -5.5 331.8 -8Q331.7 -10.4 331.7 -11.7L331.6 -13.6Q331.2 -19.2 331.3 -19.4L331.4 -19.4Q331.9 -19.4 332.3 -19.5Q332.8 -19.6 332.9 -19.6Q332.8 -18.2 333.2 -13.9Q333.6 -9.5 334.2 -9.1Q334.8 -9.4 334.8 -10.7Q334.8 -11.9 334.8 -12.1L334.9 -12.2Q334.9 -13.4 334.3 -18.2Q334.2 -19.7 333.9 -22.1Q333.6 -24.6 333.6 -25.3Q333.6 -25.5 333.1 -25.9Q332.9 -25.7 332.2 -25.3Q331.6 -24.9 331.4 -24.8Q331.3 -24.8 331.2 -24.8Q331.1 -24.8 331 -24.9Q331.3 -27.1 331.4 -29.5Q331.5 -31.9 331.5 -33Q331.4 -33.2 331.4 -33.7Q331.4 -35.2 332.2 -36.6Q333.1 -37.9 334 -38.2Q335.4 -38.7 337.5 -39Q339.7 -39.4 341.6 -39.4Q345.5 -39.4 345.8 -37.8Q345.7 -38 346.2 -36.3Q346.7 -37.4 347.5 -37.7Q350.1 -38.5 354.1 -39.1Q358.1 -39.7 362.2 -39.7Q367.4 -39.7 371.3 -38.7Q375.2 -37.7 376.6 -35.4Q378.6 -32.4 378.6 -25.1z"
              style="" fill="#76b39d" id="namepathdata"/>
          </g>
        </g>
        <g class="slogan">
          <g id="sloganDefaultGroup"/>
        </g>
      </g>
      <g class="border">
      </g>
    </g>
    <defs id="defs">
      <mask xmlns="http://www.w3.org/2000/svg" id="mask">
        <rect id="showAll" fill="white" x="-233.3" y="-292.59999999999997" width="849.2" height="530.9"/>
        <rect id="hideNameBg" fill="black" x="0" y="0" width="0" height="0" stroke-width="2" stroke="black"/>
        <rect id="hideSloganBg" fill="black" x="0" y="0" width="0" height="0" stroke-width="2" stroke="black"/>
        <path
          d="M31.2 -55Q40.8 -55 50 -53.1Q51.5 -52.8 52.3 -51.4Q53.1 -50.1 53.1 -48.2Q53.1 -45.6 51.9 -43.2Q50.8 -40.8 49.5 -40.9Q44.6 -41 38.1 -41.8Q34.2 -42.3 32.5 -42.3Q30.4 -42.3 29.1 -41.9Q27.1 -41.3 26.5 -40.1Q25.9 -38.9 26.1 -36.9Q26.6 -34.3 28.2 -30.6Q30.8 -30.5 35.6 -30.7Q37.2 -30.8 40.2 -30.8L42.7 -30.7Q46.3 -30.5 48.1 -29.8Q50 -29.2 51.3 -27.5Q52.8 -25.3 53.7 -22.4Q54.6 -19.4 54.6 -16.3Q54.6 -12.5 53.3 -9.4Q52.1 -6.3 49.6 -4.8Q45.9 -2.7 39.9 -1.5Q33.8 -0.4 26.6 -0.4Q16.9 -0.4 7.8 -2.3Q6.3 -2.6 5.5 -4Q4.8 -5.3 4.8 -7.2Q4.8 -9.9 5.9 -12.2Q7.1 -14.6 8.4 -14.5Q14 -14.4 19.5 -13.5Q23.7 -13 25.5 -13Q27.3 -13 28.9 -13.5Q30.7 -14 31.1 -15Q31.5 -15.9 31.6 -17.7Q31.7 -18.1 31.7 -18.9Q31.7 -20.7 30.6 -22.2L27.7 -22.2Q21.4 -22.2 14.1 -23.2Q11.5 -23.6 10.1 -24.1Q8.8 -24.6 7.9 -25.8Q5.7 -29 4.6 -32.8Q4.2 -34 4 -37.9L4.8 -37.9Q4.8 -36.1 5 -35.1Q5.2 -34.1 5.2 -33.9Q5.5 -32.3 6 -32.3Q6.3 -32.3 6.3 -33.9Q5.9 -37.5 5.9 -43.6Q5.9 -44.1 5.3 -44.1Q5 -44.1 4.6 -43.9L4 -44.1Q5.1 -48.7 8.4 -50.6Q12 -52.8 18 -53.9Q24 -55 31.2 -55zM61.8 -16.3Q61.8 -21.1 63.2 -27.7Q63.1 -27.8 63.4 -27.9Q63.7 -28 63.9 -28Q64.4 -28 64.3 -27.6Q63.7 -24.3 63.4 -22.3Q63.1 -20.4 63.1 -18Q63.1 -16 63.4 -13.2Q63.4 -13 63.9 -13Q64.3 -13 64.7 -13.1Q65 -13.2 65 -13.5Q65 -14.5 65 -16.6Q65 -22.1 66.2 -28.4Q65.9 -28.9 65.3 -29.1Q64.7 -29.4 64.1 -29.3Q67 -33.8 71 -36.2Q74.9 -38.7 80.6 -39.4Q82.5 -39.6 84.3 -39.6Q91 -39.6 95.1 -36.8Q99.7 -33.5 100.8 -27.8Q101.2 -25.3 101.2 -23.4Q101.2 -21.3 100.8 -19.6Q100.5 -18.4 99.6 -18.1Q98.8 -17.7 97.3 -17.6Q93.9 -17.5 88.6 -17.1Q83.4 -16.8 81.1 -16.6Q78.3 -16.3 78 -19.6L78 -20.8Q78 -22.2 79 -22.6Q79.3 -22.8 79.5 -22.8Q79.8 -22.9 79.9 -22.9Q81.4 -23.1 84.2 -23.3Q87 -23.5 88.8 -23.5Q88.8 -25.1 88 -26.9Q86.9 -29.4 83.3 -29.2Q81 -29.2 79.5 -28Q78 -26.9 77.1 -24.6Q76.5 -23.2 76.3 -21Q76.1 -18.9 76.2 -15.8Q76.3 -12.7 78.2 -11.1Q80 -9.6 82.6 -9.7Q85.5 -9.9 86.8 -10.1Q88.1 -10.4 88.6 -11.1Q89.1 -11.8 89.1 -13.2Q89.1 -14.2 90.8 -14.9Q92.5 -15.5 94.7 -15.5Q97.3 -15.5 99.1 -14.3Q101 -13.1 100.7 -10.4Q100.2 -5.1 95.4 -2.3Q90.6 0.6 84.3 0.9Q83.3 1 81.4 1Q72 1 67 -3.1Q65.2 -4.5 63.9 -7Q62.6 -9.4 62.1 -12.1Q61.8 -14.1 61.8 -16.3zM156.2 -4.5Q156.2 -2.9 155.6 -1.7Q154.9 -0.5 153.5 -0.2Q150.6 0.4 148.1 0.4Q144.9 0.4 141.7 -0.6Q138.6 -1.7 137.2 -3.8Q136.8 -3 136.1 -2.6Q135.4 -2.2 133.9 -2.1Q132.3 -2 127.7 -1.4Q118.3 -0.3 116.4 -0.3Q114.6 -0.3 113.7 -0.9Q112.8 -1.5 112.1 -3.2Q110.7 -6.6 109.4 -16Q108.1 -25.3 108.1 -30.6Q108.1 -33.2 109.1 -34.8Q110.1 -36.4 111.5 -36.9Q113.7 -37.7 118.1 -38.2Q122.6 -38.6 126.3 -38.6Q128.2 -38.6 128.6 -38.5Q131.2 -38.2 132.3 -37.1Q133.3 -36 133.3 -34.1Q133.3 -31.5 132.4 -29.9Q131.6 -28.4 130.2 -28.5Q128.4 -28.7 127.8 -28.7Q125.6 -28.7 124.3 -27.9Q123.2 -27.4 122.8 -26.6Q122.3 -25.8 122.3 -24.8Q122.3 -23.7 122.7 -20.5Q123.1 -17.3 123.3 -16.2L123.8 -11.3Q126.1 -11.5 131.6 -12.2Q133.1 -12.5 134.3 -12.7Q135.1 -12.7 135.4 -12.6Q134.9 -19.2 134.7 -23.9Q134.5 -27.4 134.3 -31.1Q134.2 -34.8 134.1 -36.5Q134.1 -37.2 134.9 -37.9Q135.7 -38.8 138 -39.2Q140.3 -39.6 142.8 -39.6Q147.5 -39.6 149.3 -38.7Q151.1 -37.8 151.1 -35.8L151.1 -36.4Q150.9 -36.4 150.7 -31Q150.4 -25.5 150.4 -20.5Q150.4 -12.6 151.1 -9.9Q151.3 -9.4 152 -9.4L152.9 -9.4Q153.1 -9.4 153.7 -9.3Q154.9 -9 155.6 -7.6Q156.2 -6.2 156.2 -4.5zM161.1 -10.4Q161.4 -12 161.9 -15.3Q162.4 -20.2 163.2 -26.6Q164.1 -32.9 164.5 -35.1Q164.7 -35 166.4 -35Q166.1 -33.6 165.1 -25.1Q164.1 -16.6 164.1 -13.5Q164.1 -12.2 164.2 -12.2Q164.9 -12.2 165.1 -13.1Q165.4 -14 165.5 -15.2L165.7 -15.3Q166 -17.3 166.5 -25.5Q166.6 -27.5 167.1 -33.4Q167.5 -39.4 167.8 -40.2Q167.8 -40.4 167.5 -40.6Q167.3 -40.9 167.2 -41.1Q166.9 -40.9 166.1 -40.6Q165.2 -40.2 165 -40.1Q165 -40.3 164.6 -40.4Q165.1 -42.1 165.8 -45.2Q166.5 -48.2 166.7 -49.4Q167 -51.3 168.2 -52.8Q169.4 -54.4 170.6 -54.6Q172.1 -54.9 175.1 -54.9Q178.9 -54.9 182.2 -54.4Q183.3 -54.3 184.5 -53.2Q185.8 -52.2 186.1 -50.9L194.8 -16.2L204.1 -50.6Q204.5 -52.1 205.8 -53.1Q207.1 -54.2 209.1 -54.7Q211.2 -55.3 213.8 -55.3Q215.5 -55.3 217 -55.1Q218.3 -54.9 219.6 -53.5Q220.9 -52.2 221.5 -49.8Q222 -47.7 222.9 -39.7Q223.6 -33 224.1 -31.7Q223.9 -31.7 223.7 -31.6Q223.6 -31.6 223.6 -31.6Q223.4 -31.7 222.6 -31.9Q221.8 -32.1 221.4 -32.4Q220.8 -31.8 220.8 -31.6Q221.3 -30.5 221.6 -24.3Q222.1 -17.9 222.4 -15.5Q222.4 -15.5 222.4 -15.4Q222.5 -15.4 222.6 -15.4Q222.9 -12.6 223.9 -12.5Q224.1 -12.7 224.1 -13.8Q224.1 -16.4 223.3 -22.2Q222.6 -27.9 222.3 -29.2Q222.3 -29.2 223.1 -29.3Q223.9 -29.4 224.1 -29.5Q224.2 -29.2 224.8 -24.8Q226 -16.8 226.2 -15.7L227 -11L227.7 -7.2Q227.8 -6.2 227.8 -5.8Q227.8 -4.2 227 -3.3Q226.2 -2.3 224.9 -1.9Q222.6 -1.2 220 -0.6Q217.4 -0.1 215.7 -0.1Q214.3 -0.1 213.4 -0.3Q212.5 -0.4 211.3 -0.9Q210.4 -1.2 210 -4.5L209.1 -14.5Q208 -26.3 207.5 -30.5Q206.7 -27.8 206 -25.4Q205.3 -23 204.8 -21.1Q202 -11.2 200.2 -5.7Q199.1 -2.2 197.1 -2.1L195 -2Q193 -2 191.6 -2.3Q189.9 -2.6 188.8 -6.2Q184.2 -21.4 182.3 -30.8L181.8 -24.4Q181.7 -23.1 181.3 -18Q180.9 -12.8 180.5 -9.2Q180.1 -5.5 179.6 -3.2Q179.1 -1.9 178.6 -1.7Q177.8 -1.4 177 -1.3Q176.2 -1.2 175.8 -1.2Q174.2 -0.8 170.8 -0.8Q166 -0.8 164 -1.4Q162.2 -2 161.4 -2.9Q160.6 -3.8 160.6 -5.8Q160.6 -6.3 160.7 -7.6L161.1 -10.4zM236.4 -29.5Q236.5 -29.6 236.6 -29.7Q236.7 -29.7 237 -29.7Q237.2 -29.7 237.4 -29.6Q237.5 -29.5 237.5 -29.2Q236.2 -25 235.7 -22.3Q235.3 -19.6 235.2 -15Q235.2 -14.7 235.9 -14.7Q236.2 -14.7 236.5 -14.8Q236.9 -15 236.9 -15.2Q237.2 -22.6 239.4 -29.9Q239.2 -30.4 238.6 -30.7Q238 -31 237.4 -31Q240.9 -35.4 245.4 -37.4Q249.8 -39.4 256.1 -39.4Q260.2 -39.4 263.8 -38.5Q267.4 -37.5 269.5 -35.6Q273 -32.8 274.4 -29Q275.8 -25.3 275.8 -20.4Q275.8 -17 274.8 -13Q273.8 -9.1 271.4 -6.1Q268.3 -2.3 263.6 -0.7Q259 0.9 253.6 0.9Q243.7 0.9 237.9 -4.6Q236.3 -6.1 235.2 -8.8Q234.1 -11.4 233.9 -14Q233.9 -16.8 234.2 -20.2Q234.6 -23.5 236.4 -29.5zM254.4 -9.8Q256.9 -9.8 258.7 -11.4Q260.6 -13 261.2 -15.9Q262 -19.7 262 -22.2Q262 -24.2 261.5 -25.6Q260.1 -29.2 255.9 -29.2Q253.9 -29.2 252.5 -28.2Q251.1 -27.2 249.9 -25.2Q249 -23.6 248.6 -21.2Q248.3 -18.7 248.3 -16.1Q248.3 -13 250 -11.4Q251.9 -9.8 254.4 -9.8zM284.8 -29.5Q284.8 -29.6 285 -29.7Q285.1 -29.7 285.3 -29.7Q285.6 -29.7 285.8 -29.6Q285.9 -29.5 285.8 -29.2Q284.5 -25 284.1 -22.3Q283.7 -19.6 283.6 -15Q283.6 -14.7 284.3 -14.7Q284.6 -14.7 284.9 -14.8Q285.3 -15 285.3 -15.2Q285.6 -22.6 287.8 -29.9Q287.6 -30.4 286.9 -30.7Q286.3 -31 285.8 -31Q289.3 -35.4 293.8 -37.4Q298.2 -39.4 304.5 -39.4Q308.6 -39.4 312.2 -38.5Q315.8 -37.5 317.9 -35.6Q321.3 -32.8 322.8 -29Q324.2 -25.3 324.2 -20.4Q324.2 -17 323.2 -13Q322.1 -9.1 319.8 -6.1Q316.7 -2.3 312 -0.7Q307.4 0.9 302 0.9Q292.1 0.9 286.3 -4.6Q284.7 -6.1 283.6 -8.8Q282.5 -11.4 282.3 -14Q282.2 -16.8 282.6 -20.2Q283 -23.5 284.8 -29.5zM302.8 -9.8Q305.3 -9.8 307.1 -11.4Q308.9 -13 309.6 -15.9Q310.4 -19.7 310.4 -22.2Q310.4 -24.2 309.9 -25.6Q308.4 -29.2 304.3 -29.2Q302.3 -29.2 300.9 -28.2Q299.4 -27.2 298.3 -25.2Q297.4 -23.6 297 -21.2Q296.6 -18.7 296.6 -16.1Q296.6 -13 298.4 -11.4Q300.2 -9.8 302.8 -9.8zM378.6 -25.1Q378.6 -19.8 377.7 -13.7Q376.8 -7.6 375.7 -3.6Q375.4 -2.6 374.8 -1.8Q374.2 -0.9 373.5 -0.6Q372 0 369.9 0Q368.1 0 365.8 -0.5Q364.1 -0.9 363.3 -1.6Q362.4 -2.2 362 -4Q361.5 -6 361.5 -8.4Q361.5 -10.1 362.1 -15.1Q362.7 -21.3 362.9 -24.5Q363 -26.3 362.6 -27.1Q362.2 -27.9 360.7 -27.9Q358.6 -27.9 355.3 -27.5Q352.1 -27.2 349.6 -26.7L349.3 -26.7Q348.3 -26.7 347.7 -27.6Q349.2 -16.3 349.2 -8.3Q349.2 -5.1 348.9 -3.4Q348.9 -3 348.7 -2.6Q348.5 -2.2 348.2 -1.9Q347.8 -1.7 347.2 -1.5Q346.5 -1.3 346.1 -1.1Q344.7 -0.4 342.1 0Q339.5 0.4 337.3 0.4Q335.7 0.4 334.5 0.2Q333.6 0 332.8 -1.2Q332 -2.4 332 -4.3Q332 -5.5 331.8 -8Q331.7 -10.4 331.7 -11.7L331.6 -13.6Q331.2 -19.2 331.3 -19.4L331.4 -19.4Q331.9 -19.4 332.3 -19.5Q332.8 -19.6 332.9 -19.6Q332.8 -18.2 333.2 -13.9Q333.6 -9.5 334.2 -9.1Q334.8 -9.4 334.8 -10.7Q334.8 -11.9 334.8 -12.1L334.9 -12.2Q334.9 -13.4 334.3 -18.2Q334.2 -19.7 333.9 -22.1Q333.6 -24.6 333.6 -25.3Q333.6 -25.5 333.1 -25.9Q332.9 -25.7 332.2 -25.3Q331.6 -24.9 331.4 -24.8Q331.3 -24.8 331.2 -24.8Q331.1 -24.8 331 -24.9Q331.3 -27.1 331.4 -29.5Q331.5 -31.9 331.5 -33Q331.4 -33.2 331.4 -33.7Q331.4 -35.2 332.2 -36.6Q333.1 -37.9 334 -38.2Q335.4 -38.7 337.5 -39Q339.7 -39.4 341.6 -39.4Q345.5 -39.4 345.8 -37.8Q345.7 -38 346.2 -36.3Q346.7 -37.4 347.5 -37.7Q350.1 -38.5 354.1 -39.1Q358.1 -39.7 362.2 -39.7Q367.4 -39.7 371.3 -38.7Q375.2 -37.7 376.6 -35.4Q378.6 -32.4 378.6 -25.1z"
          style="stroke-width: 0;" fill="#000000" id="masknamepathdata" stroke="#000000" paint-order="stroke"
          transform="matrix(1,0,0,1,0,0)"/>
      </mask>

    </defs>
  </g>
</svg>
